<svg width="48" height="51" viewBox="0 0 48 51" fill="none" xmlns="http://www.w3.org/2000/svg">
<path d="M5.35477 0.448H1.04392V22.848H20.103V18.624H5.35477V0.448Z" fill="black"/>
<path d="M44.5507 19.936C46.7686 17.664 47.862 14.912 47.862 11.648C47.862 8.384 46.7686 5.632 44.5507 3.392C42.3328 1.12 39.6463 0 36.4913 0C33.3362 0 30.6498 1.12 28.4319 3.392C26.2452 5.632 25.1519 8.384 25.1519 11.648C25.1519 14.912 26.2452 17.664 28.4319 19.936C30.6498 22.176 33.3362 23.296 36.4913 23.296C39.6463 23.296 42.3328 22.176 44.5507 19.936ZM31.462 16.928C30.1187 15.552 29.4315 13.792 29.4315 11.648C29.4315 9.504 30.1187 7.744 31.462 6.368C32.8052 4.992 34.4921 4.288 36.4913 4.288C38.4905 4.288 40.1774 4.992 41.5206 6.368C42.8639 7.744 43.5511 9.504 43.5511 11.648C43.5511 13.792 42.8639 15.552 41.5206 16.928C40.1774 18.304 38.4905 18.976 36.4913 18.976C34.4921 18.976 32.8052 18.304 31.462 16.928Z" fill="black"/>
<path d="M12.067 37.968V41.872H18.6895C17.9086 44.528 15.6594 46.128 12.3169 46.128C10.0678 46.128 8.25598 45.456 6.88151 44.08C5.53827 42.704 4.85103 40.944 4.85103 38.832C4.85103 36.688 5.50703 34.928 6.85027 33.552C8.19351 32.144 9.9116 31.44 12.0046 31.44C14.5973 31.44 16.8465 32.72 17.8773 34.544L21.5634 32.368C19.6891 29.2 16.128 27.152 12.0358 27.152C8.78703 27.152 6.06932 28.272 3.85141 30.544C1.66474 32.816 0.571411 35.568 0.571411 38.832C0.571411 42.064 1.66474 44.816 3.88265 47.088C6.10055 49.328 8.91198 50.448 12.2857 50.448C15.4407 50.448 18.0335 49.456 20.0327 47.472C22.032 45.488 23.0316 42.896 23.0316 39.696V37.968H12.067Z" fill="black"/>
<path d="M44.4971 47.088C46.715 44.816 47.8083 42.064 47.8083 38.8C47.8083 35.536 46.715 32.784 44.4971 30.544C42.2792 28.272 39.5927 27.152 36.4376 27.152C33.2826 27.152 30.5961 28.272 28.3782 30.544C26.1915 32.784 25.0982 35.536 25.0982 38.8C25.0982 42.064 26.1915 44.816 28.3782 47.088C30.5961 49.328 33.2826 50.448 36.4376 50.448C39.5927 50.448 42.2792 49.328 44.4971 47.088ZM31.4083 44.08C30.0651 42.704 29.3778 40.944 29.3778 38.8C29.3778 36.656 30.0651 34.896 31.4083 33.52C32.7515 32.144 34.4384 31.44 36.4376 31.44C38.4369 31.44 40.1237 32.144 41.467 33.52C42.8102 34.896 43.4974 36.656 43.4974 38.8C43.4974 40.944 42.8102 42.704 41.467 44.08C40.1237 45.456 38.4369 46.128 36.4376 46.128C34.4384 46.128 32.7515 45.456 31.4083 44.08Z" fill="black"/>
</svg>
