<svg width="59" height="46" viewBox="0 0 59 46" fill="none" xmlns="http://www.w3.org/2000/svg">
<path opacity="0.3" fill-rule="evenodd" clip-rule="evenodd" d="M27.9492 6.94336L15.9961 0C11.4844 3.80859 7.67578 8.84766 4.57031 15.1172C1.52344 21.3281 0 27.1875 0 32.6953V45.8789H20.127V31.2012C20.3027 22.998 22.9102 14.9121 27.9492 6.94336ZM58.0957 6.94336L46.1426 0C41.6309 3.80859 37.8223 8.84766 34.7168 15.1172C31.6699 21.3281 30.1465 27.1875 30.1465 32.6953V45.8789H40V43C40 37.4772 44.4772 33 50 33H50.2734V31.2012C50.4492 22.998 53.0566 14.9121 58.0957 6.94336Z" fill="#8252F4"/>
</svg>
